<?xml version="1.0" encoding="UTF-8"?>
<svg width="95px" height="39px" viewBox="0 0 95 39" version="1.1" xmlns="http://www.w3.org/2000/svg" xmlns:xlink="http://www.w3.org/1999/xlink">
    <title>logo@2x</title>
    <defs>
        <path d="M0,0 L95,0 L95,39 L0,39 L0,0 Z" id="path-1"></path>
    </defs>
    <g id="logo" stroke="none" fill="none" xlink:href="#path-1" fill-rule="evenodd">
        <path d="M84.5,0 C90.2989899,0 95,4.70101013 95,10.5 C95,16.2989899 90.2989899,21 84.5,21 L72,21 L65,25 L64.9998657,20.8936475 C59.91149,20.1657452 56,15.7896613 56,10.5 C56,4.70101013 60.7010101,0 66.5,0 L84.5,0 Z" id="Path" fill="#737373"></path>
        <g id="Rails" stroke-width="1" transform="translate(-1, 11)" fill="#DC2626">
            <path d="M1.64375,27 L1.64375,6.63636364 L10.4335227,6.63636364 C11.9448864,6.63636364 13.2673295,6.91145833 14.4008523,7.46164773 C15.534375,8.01183712 16.4160038,8.80397727 17.0457386,9.83806818 C17.6754735,10.8721591 17.9903409,12.1117424 17.9903409,13.5568182 C17.9903409,15.0151515 17.6671875,16.2447917 17.0208807,17.2457386 C16.3745739,18.2466856 15.4697443,19.0023674 14.306392,19.5127841 C13.1430398,20.0232008 11.7857955,20.2784091 10.2346591,20.2784091 L4.98465909,20.2784091 L4.98465909,15.9829545 L9.12102273,15.9829545 C9.77064394,15.9829545 10.3258049,15.9017519 10.7865057,15.7393466 C11.2472064,15.5769413 11.6018466,15.3167614 11.8504261,14.9588068 C12.0990057,14.6008523 12.2232955,14.1335227 12.2232955,13.5568182 C12.2232955,12.9734848 12.0990057,12.4978693 11.8504261,12.1299716 C11.6018466,11.7620739 11.2472064,11.4902936 10.7865057,11.3146307 C10.3258049,11.1389678 9.77064394,11.0511364 9.12102273,11.0511364 L7.17215909,11.0511364 L7.17215909,27 L1.64375,27 Z M13.5755682,17.6534091 L18.6664773,27 L12.6607955,27 L7.68920455,17.6534091 L13.5755682,17.6534091 Z" id="Shape" fill-rule="nonzero"></path>
            <path d="M23.2896591,27.2386364 C22.3152273,27.2386364 21.455142,27.0778883 20.7094034,26.756392 C19.9636648,26.4348958 19.3786742,25.9460227 18.9544318,25.2897727 C18.5301894,24.6335227 18.3180682,23.7982955 18.3180682,22.7840909 C18.3180682,21.9488636 18.4605871,21.2346117 18.745625,20.6413352 C19.0306629,20.0480587 19.4283902,19.5625 19.9388068,19.1846591 C20.4492235,18.8068182 21.0441572,18.5184659 21.723608,18.3196023 C22.4030587,18.1207386 23.137197,17.9914773 23.9260227,17.9318182 C24.7811364,17.8655303 25.4688731,17.7843277 25.989233,17.6882102 C26.5095928,17.5920928 26.8857765,17.4562027 27.1177841,17.2805398 C27.3497917,17.1048769 27.4657955,16.8712121 27.4657955,16.5795455 L27.4657955,16.5397727 C27.4657955,16.1420455 27.3133333,15.8371212 27.0084091,15.625 C26.7034848,15.4128788 26.3123864,15.3068182 25.8351136,15.3068182 C25.3114394,15.3068182 24.8855398,15.4211648 24.5574148,15.649858 C24.2292898,15.8785511 24.0320833,16.2282197 23.9657955,16.6988636 L18.9146591,16.6988636 C18.980947,15.7708333 19.2775852,14.9140625 19.8045739,14.1285511 C20.3315625,13.3430398 21.1021591,12.7133049 22.1163636,12.2393466 C23.1305682,11.7653883 24.3966667,11.5284091 25.9146591,11.5284091 C27.0084091,11.5284091 27.9894697,11.6560133 28.8578409,11.9112216 C29.7262121,12.1664299 30.465322,12.5210701 31.0751705,12.975142 C31.6850189,13.429214 32.1506913,13.959517 32.4721875,14.5660511 C32.7936837,15.1725852 32.9544318,15.8304924 32.9544318,16.5397727 L32.9544318,27 L27.82375,27 L27.82375,24.8522727 L27.7044318,24.8522727 C27.3995076,25.4223485 27.0299527,25.8830492 26.595767,26.234375 C26.1615814,26.5857008 25.6677367,26.8409091 25.114233,27 C24.5607292,27.1590909 23.9525379,27.2386364 23.2896591,27.2386364 Z M25.0794318,23.7784091 C25.4970455,23.7784091 25.8898011,23.6922348 26.2576989,23.5198864 C26.6255966,23.3475379 26.9255492,23.0989583 27.1575568,22.7741477 C27.3895644,22.4493371 27.5055682,22.0549242 27.5055682,21.5909091 L27.5055682,20.3181818 C27.3597348,20.3778409 27.2056155,20.4341856 27.0432102,20.4872159 C26.8808049,20.5402462 26.7084564,20.5899621 26.5261648,20.6363636 C26.3438731,20.6827652 26.1516383,20.7258523 25.9494602,20.765625 C25.7472822,20.8053977 25.5368182,20.8418561 25.3180682,20.875 C24.8938258,20.9412879 24.5474716,21.0490057 24.2790057,21.1981534 C24.0105398,21.3473011 23.8116761,21.5295928 23.6824148,21.7450284 C23.5531534,21.960464 23.4885227,22.2007576 23.4885227,22.4659091 C23.4885227,22.8901515 23.6376705,23.2149621 23.9359659,23.4403409 C24.2342614,23.6657197 24.6154167,23.7784091 25.0794318,23.7784091 Z" id="Shape" fill-rule="nonzero"></path>
            <path d="M34.1969318,27 L34.1969318,11.7272727 L39.6855682,11.7272727 L39.6855682,27 L34.1969318,27 Z M36.9462216,10.1363636 C36.200483,10.1363636 35.5624621,9.89096902 35.0321591,9.40017978 C34.5018561,8.90939054 34.2367045,8.31945431 34.2367045,7.63037109 C34.2367045,6.9411843 34.5023221,6.35132576 35.0335574,5.86079545 C35.5647926,5.37026515 36.2006901,5.125 36.94125,5.125 C37.690303,5.125 38.3283239,5.37039462 38.8553125,5.86118386 C39.3823011,6.3519731 39.6457955,6.94190933 39.6457955,7.63099254 C39.6457955,8.32017933 39.3823011,8.91003788 38.8553125,9.40056818 C38.3283239,9.89109848 37.6919602,10.1363636 36.9462216,10.1363636 Z" id="Shape" fill-rule="nonzero"></path>
            <polygon id="Path" fill-rule="nonzero" points="46.5757955 6.63636364 46.5757955 27 41.0871591 27 41.0871591 6.63636364"></polygon>
            <path d="M61.9376136,16.6988636 L56.8864773,16.6988636 C56.8599621,16.3873106 56.7505871,16.1188447 56.5583523,15.8934659 C56.3661174,15.6680871 56.1191951,15.4940814 55.8175852,15.3714489 C55.5159754,15.2488163 55.1828788,15.1875 54.8182955,15.1875 C54.3476515,15.1875 53.9432955,15.2736742 53.6052273,15.4460227 C53.2671591,15.6183712 53.1014394,15.8636364 53.1080682,16.1818182 C53.1014394,16.407197 53.199214,16.6160038 53.401392,16.8082386 C53.6035701,17.0004735 53.9963258,17.1496212 54.5796591,17.2556818 L57.6819318,17.8125 C59.2463258,18.0975379 60.4113352,18.5764678 61.1769602,19.2492898 C61.9425852,19.9221117 62.3287121,20.8219697 62.3353409,21.9488636 C62.3287121,23.0359848 62.0055587,23.9789299 61.3658807,24.7776989 C60.7262027,25.5764678 59.854517,26.1929451 58.7508239,26.6271307 C57.6471307,27.0613163 56.3893182,27.2784091 54.9773864,27.2784091 C52.644053,27.2784091 50.8194792,26.8011364 49.5036648,25.8465909 C48.1878504,24.8920455 47.4537121,23.6325758 47.30125,22.0681818 L52.7501136,22.0681818 C52.8230303,22.5520833 53.0633239,22.9249527 53.4709943,23.1867898 C53.8786648,23.4486269 54.394053,23.5795455 55.0171591,23.5795455 C55.520947,23.5795455 55.9369034,23.4933712 56.2650284,23.3210227 C56.5931534,23.1486742 56.7605303,22.9034091 56.7671591,22.5852273 C56.7605303,22.2935606 56.6163542,22.061553 56.3346307,21.8892045 C56.0529072,21.7168561 55.61375,21.5776515 55.0171591,21.4715909 L52.3126136,20.9943182 C50.7548485,20.7225379 49.5881818,20.2054924 48.8126136,19.4431818 C48.0370455,18.6808712 47.6525758,17.6998106 47.6592045,16.5 C47.6525758,15.4393939 47.932642,14.539536 48.4994034,13.8004261 C49.0661648,13.0613163 49.8781913,12.4978693 50.935483,12.1100852 C51.9927746,11.7223011 53.2472727,11.5284091 54.6989773,11.5284091 C56.9063636,11.5284091 58.6480777,11.9857955 59.9241193,12.9005682 C61.200161,13.8153409 61.8713258,15.0814394 61.9376136,16.6988636 Z" id="Path" fill-rule="nonzero"></path>
        </g>
        <g id="tl;dr" stroke-width="1" transform="translate(61, 1)" fill="#FFFFFF">
            <path d="M6.22244318,6.36363636 L6.22244318,8.35227273 L1.19119318,8.35227273 L1.19119318,6.36363636 L6.22244318,6.36363636 Z M2.165625,4.53409091 L4.90994318,4.53409091 L4.90994318,11.5440341 C4.90994318,11.6500947 4.92817235,11.7387547 4.96463068,11.8100142 C5.00108902,11.8812737 5.05743371,11.934304 5.13366477,11.9691051 C5.20989583,12.0039063 5.30767045,12.0213068 5.42698864,12.0213068 C5.50984848,12.0213068 5.60679451,12.0113636 5.7178267,11.9914773 C5.8288589,11.9715909 5.91089015,11.9550189 5.96392045,11.9417614 L6.36164773,13.8707386 C6.23901515,13.907197 6.06418087,13.9519413 5.83714489,14.0049716 C5.6101089,14.0580019 5.34081439,14.092803 5.02926136,14.109375 C4.39952652,14.1425189 3.87088068,14.0770597 3.44332386,13.9129972 C3.01576705,13.7489347 2.69427083,13.4895833 2.47883523,13.1349432 C2.26339962,12.780303 2.15899621,12.3361742 2.165625,11.8025568 L2.165625,4.53409091 Z M9.54823864,3.81818182 L9.54823864,14 L6.80392045,14 L6.80392045,3.81818182 L9.54823864,3.81818182 Z M12.9138068,12.6079545 L12.8740341,13.1647727 C12.8408902,13.6420455 12.7621733,14.0994318 12.6378835,14.5369318 C12.5135937,14.9744318 12.3826752,15.3622159 12.2451278,15.7002841 C12.1075805,16.0383523 11.9990341,16.3001894 11.9194886,16.4857955 L10.2291477,16.4857955 C10.282178,16.3001894 10.3575805,16.0325521 10.4553551,15.6828835 C10.5531297,15.333215 10.6426184,14.9388021 10.723821,14.4996449 C10.8050237,14.0604877 10.845625,13.6155303 10.845625,13.1647727 L10.845625,12.6079545 L12.9138068,12.6079545 Z M11.9194886,9.02840909 C11.5350189,9.02840909 11.2060653,8.89334754 10.9326278,8.62322443 C10.6591903,8.35310133 10.5241288,8.02414773 10.5274432,7.63636364 C10.5241288,7.25852273 10.6591903,6.93536932 10.9326278,6.66690341 C11.2060653,6.3984375 11.5350189,6.26420455 11.9194886,6.26420455 C12.284072,6.26420455 12.6063968,6.3984375 12.8864631,6.66690341 C13.1665294,6.93536932 13.3082197,7.25852273 13.3115341,7.63636364 C13.3082197,7.89488636 13.2411032,8.12937973 13.1101847,8.33984375 C12.9792661,8.55030777 12.8094034,8.71768466 12.6005966,8.84197443 C12.3917898,8.9662642 12.1647538,9.02840909 11.9194886,9.02840909 Z M16.7765341,14.0994318 C16.2329735,14.0994318 15.7333286,13.9569129 15.2775994,13.671875 C14.8218703,13.3868371 14.4572869,12.9543087 14.1838494,12.3742898 C13.9104119,11.7942708 13.7736932,11.063447 13.7736932,10.1818182 C13.7736932,9.26041667 13.9170407,8.51136364 14.2037358,7.93465909 C14.4904309,7.35795455 14.861643,6.93536932 15.3173722,6.66690341 C15.7731013,6.3984375 16.2528598,6.26420455 16.7566477,6.26420455 C17.1344886,6.26420455 17.465928,6.32966383 17.7509659,6.46058239 C18.0360038,6.59150095 18.2746402,6.76550663 18.466875,6.98259943 C18.6591098,7.19969223 18.8049432,7.4375 18.904375,7.69602273 L18.9441477,7.69602273 L18.9441477,3.81818182 L21.6884659,3.81818182 L21.6884659,14 L18.9640341,14 L18.9640341,12.7471591 L18.904375,12.7471591 C18.7983144,13.0056818 18.6466809,13.2368608 18.4494744,13.440696 C18.252268,13.6445312 18.0136316,13.8052794 17.7335653,13.9229403 C17.4534991,14.0406013 17.1344886,14.0994318 16.7765341,14.0994318 Z M17.7907386,11.9914773 C18.0426326,11.9914773 18.2588968,11.917732 18.4395313,11.7702415 C18.6201657,11.6227509 18.7593703,11.4139441 18.8571449,11.143821 C18.9549195,10.8736979 19.0038068,10.5530303 19.0038068,10.1818182 C19.0038068,9.80397727 18.9549195,9.47999527 18.8571449,9.20987216 C18.7593703,8.93974905 18.6201657,8.73259943 18.4395313,8.5884233 C18.2588968,8.44424716 18.0426326,8.37215909 17.7907386,8.37215909 C17.5388447,8.37215909 17.3242377,8.44424716 17.1469176,8.5884233 C16.9695975,8.73259943 16.8337074,8.93974905 16.7392472,9.20987216 C16.6447869,9.47999527 16.5975568,9.80397727 16.5975568,10.1818182 C16.5975568,10.5596591 16.6447869,10.8836411 16.7392472,11.1537642 C16.8337074,11.4238873 16.9695975,11.6310369 17.1469176,11.7752131 C17.3242377,11.9193892 17.5388447,11.9914773 17.7907386,11.9914773 Z M22.3494886,14 L22.3494886,6.36363636 L25.0142614,6.36363636 L25.0142614,7.81534091 L25.0938068,7.81534091 C25.2330114,7.27840909 25.4542472,6.88565341 25.7575142,6.63707386 C26.0607812,6.38849432 26.41625,6.26420455 26.8239205,6.26420455 C26.9432386,6.26420455 27.0617282,6.27331913 27.1793892,6.2915483 C27.2970502,6.30977746 27.4105682,6.33546402 27.5199432,6.36860795 L27.5199432,8.71022727 C27.384053,8.66382576 27.2166761,8.62902462 27.0178125,8.60582386 C26.8189489,8.58262311 26.6482576,8.57102273 26.5057386,8.57102273 C26.2372727,8.57102273 25.9961506,8.63151042 25.7823722,8.7524858 C25.5685937,8.87346117 25.4003883,9.04249527 25.2777557,9.25958807 C25.1551231,9.47668087 25.0938068,9.73106061 25.0938068,10.0227273 L25.0938068,14 L22.3494886,14 Z" id="Combined-Shape" fill-rule="nonzero"></path>
        </g>
    </g>
</svg>